# xmcd
#
# Track frame offsets:
#	150
#	12395
#	23487
#	36505
#	49475
#	63280
#	73957
#	86675
#	94780
#	105820
#	116722
#	129807
#	141540
#	153955
#	166057
#
# Disc length: 2436 seconds
#
# Revision: 5
# Processed by: cddbd v1.5.2PL0 Copyright (c) Steve Scherf et al.
# Submitted via: audiograbber 1.83.01
#
DISCID=c509820f
DTITLE=Various Artist - CLASSIC COUNTRY 1965 BIS 1969 [DISC 01]
DYEAR=1999
DGENRE=COUNTRY
TTITLE0=TAMMY WYNETTE - STAND BY YOUR MAN
TTITLE1=ROGER MILLER - KING OF THE ROAD
TTITLE2=JIM REEVES - DISTANT DRUMS
TTITLE3=BOBBIE GENTRY - I'LL NEVER FALL IN LOVE AGAIN
TTITLE4=CHARLEY PRIDE - ALL I HAVE TO OFFER YOU IS ME
TTITLE5=WAYLON JENNINGS - ONLY DADDY THAT'LL WALK THE LINE
TTITLE6=EDDY ARNOLD - THEN YOU CAN TELL ME GOODBYE
TTITLE7=SANDY POSEY - BORN A WOMAN
TTITLE8=SONNY JAMES - I'LL NEVER FIND ANOTHER YOU
TTITLE9=PORTER WAGONER - GREEN GREEN GRASS OF HOME
TTITLE10=LEAPY LEE - LITTLE ARROWS
TTITLE11=JACK GREENE - THERE GOES MY EVERYTHING
TTITLE12=MERLE HAGGARD - OKIE FROM MUSKOGIE
TTITLE13=GLEN CAMPBELL - GALVESTON
TTITLE14=JOHNNY CASH - A BOY NAMED SUE
EXTD=YEAR: 1999 ID3G: 2
EXTT0=
EXTT1=
EXTT2=
EXTT3=
EXTT4=
EXTT5=
EXTT6=
EXTT7=
EXTT8=
EXTT9=
EXTT10=
EXTT11=
EXTT12=
EXTT13=
EXTT14=
PLAYORDER=
